<svg width="361" height="358" viewBox="0 0 361 358" fill="none" xmlns="http://www.w3.org/2000/svg">
<path d="M251.662 121.287C201.855 86.6726 87.4326 -5.47777 27.5148 48.141C-32.403 101.76 0.404186 359.225 176.904 331.502C243.212 321.086 343.393 315.337 357.441 283.401C380.794 230.277 282.759 142.891 251.662 121.287Z" fill="#E9E8E8"/>
<path d="M176.261 114.215L193.009 126.31L157.056 120.875V148.515C157.056 150.845 156.155 153.081 154.552 154.729C152.949 156.377 150.774 157.303 148.507 157.303H11.3158C3.86433 157.303 3.18488 151.785 3.18488 144.986V26.9951C3.19084 23.013 4.73526 19.1963 7.4785 16.3844C10.2217 13.5725 13.9392 11.9956 17.8134 12.0005H143.606C151.058 12.0005 157.106 17.5136 157.106 24.3172V96.0801" fill="white"/>
<path d="M176.261 114.215L193.009 126.31L157.056 120.875V148.515C157.056 150.845 156.155 153.081 154.552 154.729C152.949 156.377 150.774 157.303 148.507 157.303H11.3158C3.86433 157.303 3.18488 151.785 3.18488 144.986V26.9951C3.19084 23.013 4.73526 19.1963 7.4785 16.3844C10.2217 13.5725 13.9392 11.9956 17.8134 12.0005H143.606C151.058 12.0005 157.106 17.5136 157.106 24.3172V96.0801" stroke="#1D252E" stroke-width="4" stroke-linecap="round" stroke-linejoin="round"/>
<path d="M76.6963 21.0333C77.9952 15.7268 77.6202 11.6012 75.5713 8.65658C72.4981 4.24423 65.1051 -1.38451 54.6388 0.308276C44.1726 2.00106 36.2126 11.8479 34.2553 22.5365C32.9533 29.6622 33.7993 37.2304 36.7931 45.2411C38.7129 47.8188 40.6973 49.0861 42.7462 49.0429C45.8194 48.9782 52.002 47.2206 54.0269 44.8803C55.3738 43.3109 62.9302 35.3619 76.6963 21.0333Z" fill="#1D252E"/>
<path d="M75.3464 21.0657L78.3611 28.8035L77.6052 37.9011L73.308 44.589L68.5428 47.7664L68.7543 63.8109L80.53 64.0005L75.7153 74.5457C68.4933 78.7083 59.9664 79.5963 50.7826 78.8008L36.4286 65.5037L54.0629 62.8026L54.9043 48.0763L50.2066 42.0035L47.9568 36.162L44.0735 35.8059L42.7416 29.5759L45.4415 26.3383L50.5306 25.1034L53.6804 19.2666L52.9109 14.4426L66.887 21.2507L75.3464 21.0657Z" fill="white"/>
<path d="M75.3463 21.0657C78.0721 25.6271 79.0249 31.077 78.0146 36.3285C77.0307 41.6936 73.6964 45.5047 68.0118 47.7618L68.7407 63.8247L75.7107 63.9357" stroke="#1D252E" stroke-width="4" stroke-linecap="round" stroke-linejoin="round"/>
<path d="M75.0584 20.5061C73.7985 21.4558 71.2712 21.5098 67.4764 20.668C63.6817 19.8262 58.8235 17.745 52.9019 14.4241C53.6974 16.5243 53.7437 18.8461 53.0324 20.9779C52.4273 23.0221 51.1377 24.7802 49.3922 25.9406C46.1584 25.1636 44.1231 26.0732 43.2861 28.6694C42.0352 32.5638 43.3716 35.7181 44.636 36.2268C45.482 36.5691 46.5784 36.546 47.9253 36.1575C47.9253 38.137 48.8582 40.391 50.7241 42.9193C52.59 45.4477 53.9669 46.8152 54.8548 47.0218L54.6658 62.9183L44.483 64.1208" stroke="#1D252E" stroke-width="4" stroke-linecap="round" stroke-linejoin="round"/>
<path d="M69.573 47.0495C68.4522 47.7406 67.2085 48.195 65.9148 48.3862C64.0122 48.6954 62.0715 48.6563 60.1822 48.2705" stroke="#1D252E" stroke-width="4" stroke-linecap="round" stroke-linejoin="round"/>
<path d="M43.5111 50.6571C42.5417 50.9815 41.5006 51.004 40.5188 50.7219C39.3189 50.4475 37.9689 49.4577 36.4691 47.7526" stroke="#1D252E" stroke-width="4" stroke-linecap="round" stroke-linejoin="round"/>
<path d="M43.2051 52.7013C42.4642 53.1084 41.1638 53.1361 39.3039 52.7846C37.4441 52.4331 35.9142 51.2429 34.7142 49.214C33.1844 49.2449 31.695 50.8066 30.2461 53.8992C28.0682 58.5243 29.5936 64.2733 27.8027 67.3537C26.6028 69.4072 24.6649 71.3282 21.9891 73.1165C30.9555 74.0416 36.9341 71.8739 39.9249 66.6136C42.9157 61.3534 44.0091 56.7159 43.2051 52.7013Z" fill="#1D252E"/>
<path d="M106.403 121.407C116.302 128.835 122.837 131.63 126.008 129.792C129.185 127.942 165.929 112.541 165.929 112.541C165.929 112.541 171.005 111.958 172.863 111.926C178.439 111.829 188.284 102.93 184.054 100.233C182.16 99.0217 172.413 97.0329 168.971 97.7775C167.95 97.9995 165.11 93.985 163.626 94.8313C161.785 95.8859 161.169 101.968 158.613 103.98L122.615 106.163L116.856 103.388L106.403 121.407Z" fill="white"/>
<path d="M161.11 102.083C160.318 102.657 159.49 103.291 158.613 103.98L122.615 106.163" stroke="#1D252E" stroke-width="4" stroke-linecap="round" stroke-linejoin="round"/>
<path d="M113.072 126.032C119.299 129.927 123.611 131.18 126.008 129.792C129.185 127.942 165.929 112.541 165.929 112.541C165.929 112.541 169.421 112.36 172.863 111.926C176.306 111.491 188.342 103.947 184.054 100.233C179.766 96.5195 172.413 97.0329 168.971 97.7775C168.33 97.927 167.704 98.1407 167.104 98.4158" stroke="#1D252E" stroke-width="4" stroke-linecap="round" stroke-linejoin="round"/>
<path d="M119.308 101.376L117.99 103.929L108.244 122.767L106.894 125.366L106.543 126.046L104.963 124.765L87.266 110.399C86.0601 111.135 84.7912 122.79 84.7912 122.79C84.7912 122.79 85.0207 124.811 85.3941 128.086C85.7361 131.101 86.1996 135.181 86.7035 139.713C87.293 144.944 87.9455 150.786 88.5439 156.299L26.6148 156.452C26.6148 146.739 26.5158 135.444 26.1648 123.747C26.1348 122.619 26.1018 121.498 26.0658 120.385C24.6934 117.208 23.4875 114.1 22.4436 111.093C21.0285 107.064 19.8269 102.958 18.8438 98.7951C16.738 89.7808 16.2475 82.4685 16.8774 78.07C16.9964 77.024 17.2648 76.0016 17.6739 75.036C20.1262 69.7449 27.9737 67.0762 37.954 64.7405C46.4134 64.241 53.7029 78.4308 64.2591 77.6399C72.696 76.9508 75.6748 63.9542 78.9371 62.5667C82.1994 61.1792 102.628 77.3994 119.308 101.376Z" fill="#A3A0F0"/>
<path d="M35.9425 32.4897L46.4043 24.1645C46.575 24.0274 46.7705 23.9265 46.9795 23.8678C47.1885 23.8091 47.4068 23.7938 47.6216 23.8226C47.8364 23.8515 48.0435 23.9239 48.2308 24.0358C48.4181 24.1477 48.5819 24.2968 48.7126 24.4744L64.1015 45.8562C64.2275 46.0357 64.3161 46.24 64.3617 46.4563C64.4074 46.6726 64.4091 46.8963 64.3669 47.1133C64.3247 47.3303 64.2394 47.5361 64.1163 47.7177C63.9932 47.8993 63.835 48.0528 63.6516 48.1688L52.2629 55.4995C51.916 55.7263 51.4984 55.8094 51.0942 55.7322C50.6901 55.6549 50.3294 55.423 50.085 55.0833L35.614 34.7051C35.3757 34.3651 35.2766 33.9427 35.338 33.5284C35.3994 33.1142 35.6165 32.7412 35.9425 32.4897Z" fill="#9DD5C0"/>
<path d="M37.9224 33.9235L47.5652 26.2273L61.1407 44.8572" stroke="#1D252E" stroke-width="4" stroke-linecap="round" stroke-linejoin="round"/>
<path d="M43.2366 101.806C55.2643 99.3963 61.1409 96.1819 62.5448 92.727C63.9487 89.272 53.0954 45.6203 53.0954 45.6203C53.0954 45.6203 53.9099 39.987 52.7804 38.4746C51.651 36.9622 51.57 26.2643 44.7035 26.9118C37.837 27.5593 38.2825 38.3358 38.8539 41.8971C39.2469 44.2744 41.1173 47.9051 44.465 52.7892L45.7429 76.2385L36.3566 80.2947C34.1652 89.1934 35.8121 96.6398 43.2366 101.806Z" fill="white"/>
<path d="M49.7521 100.261C57.4421 98.0967 61.4243 95.4881 62.5447 92.727C63.9531 89.272 53.0954 45.6204 53.0954 45.6204C53.0954 45.6204 53.9098 39.987 52.7804 38.4746C51.651 36.9622 49.6666 26.9488 44.483 27.1524C39.2993 27.3559 38.2824 38.3312 38.8674 41.8925C39.2603 44.2698 41.1307 47.9005 44.4785 52.7846L45.7564 76.2339L40.1678 78.6482" stroke="#1D252E" stroke-width="4" stroke-linecap="round" stroke-linejoin="round"/>
<path d="M46.5079 102.504C36.8066 95.0025 34.8087 86.2472 41.9452 75.9934C31.7084 71.174 24.9679 70.0316 20.7967 71.6365C16.6255 73.2414 7.7476 82.8848 10.4159 92.653C13.0842 102.421 16.2655 108.665 23.555 111.972C30.8445 115.279 46.5079 102.504 46.5079 102.504Z" fill="#9693FF"/>
<path d="M85.1105 95.4835C88.3188 100.257 89.2637 108.586 85.4615 116.736" stroke="#1D252E" stroke-width="4" stroke-linecap="round" stroke-linejoin="round"/>
<path d="M167.005 98.8367C166.712 97.0283 165.992 93.467 163.162 94.8915C160.332 96.316 162.528 101.209 160.912 102.292" stroke="#1D252E" stroke-width="4" stroke-linecap="round" stroke-linejoin="round"/>
<path d="M37.1798 105.626C34.795 109.303 26.8306 111.394 24.3107 110.039" stroke="#1D252E" stroke-width="4" stroke-linecap="round" stroke-linejoin="round"/>
<mask id="mask0_17_20" style="mask-type:luminance" maskUnits="userSpaceOnUse" x="18" y="72" width="340" height="286">
<path d="M18.9202 72.5106H357.791V239.43C357.793 270.846 345.653 300.975 324.043 323.191C302.433 345.407 273.123 357.889 242.559 357.893H134.157C103.593 357.89 74.2812 345.408 52.6702 323.192C31.0592 300.977 18.919 270.847 18.9202 239.43V72.5106Z" fill="white"/>
</mask>
<g mask="url(#mask0_17_20)">
<path d="M281.22 369.275C282.948 369.275 284.698 369.211 286.458 369.067C296.49 368.272 306.144 364.789 314.459 358.966L306.486 355.728C306.486 355.728 325.515 334.846 326.478 321.04C328.039 298.682 327.868 185.21 327.868 185.21C317.128 172.588 299.633 164.994 281.157 166.543C279.42 166.685 277.709 166.907 276.023 167.209C254.753 170.974 237.974 186.635 235.301 206.749L222.801 301.143C218.063 336.641 245.299 369.16 281.22 369.275Z" fill="#9693FF"/>
<path d="M331.306 200.603C317.83 175.479 285.373 166.692 262.911 177.066" stroke="#1D252E" stroke-width="4" stroke-linecap="round"/>
<path d="M178.047 383.266C162.1 373.521 166.703 361.306 175.469 355.252C184.234 349.198 242.064 346.025 259.613 347.977C277.161 349.929 338.758 352.736 322.559 381.777C311.224 402.1 194.003 393.016 178.047 383.266Z" fill="#1D252E"/>
<path d="M306.495 355.747L314.468 358.985C322.011 353.677 328.174 346.55 332.416 338.227C336.658 329.905 338.851 320.64 338.803 311.244L338.677 213.817C338.673 211.212 338.431 208.614 337.952 206.056C336.456 198.317 332.973 191.131 327.864 185.243C327.864 185.243 328.035 298.715 326.478 321.073C325.515 334.865 306.495 355.747 306.495 355.747Z" fill="#1D252E"/>
<path d="M284.055 306.18C251.446 318.159 222.153 317.891 222.153 317.891C222.153 317.891 197.855 333.047 174.596 343.329C156.309 350.849 146.918 354.558 145.154 361.625C143.391 368.693 154.5 404.731 159.499 410.189C164.499 415.647 181.372 423.815 189.062 425.419C249.381 389.621 222.472 376.486 277.405 355.687C291.367 344.605 311.368 323.973 284.055 306.18Z" fill="#9693FF"/>
<path d="M267.937 187.787C268.771 188.342 270.298 188.51 272.518 188.291C274.737 188.072 276.647 186.838 278.246 184.591C280.046 184.791 281.643 186.783 283.038 190.566C285.139 196.241 282.781 202.832 284.581 206.639C285.781 209.179 287.87 211.646 290.849 214.039C280.212 214.184 273.396 211.012 270.403 204.525C267.409 198.037 266.587 192.458 267.937 187.787Z" fill="#1D252E"/>
<path d="M232.133 147.562C231.126 141.183 231.973 136.371 234.676 133.127C238.725 128.257 249.651 121.564 261.791 124.659C273.931 127.753 280.64 140.985 281.882 153.755C282.71 162.271 280.969 171.081 276.658 180.183C274.147 183.013 271.689 184.296 269.283 184.031C265.683 183.633 258.578 180.923 256.436 177.954C255.011 175.974 246.91 165.844 232.133 147.562Z" fill="#1D252E"/>
<path d="M233.722 147.446L231.022 156.877L232.822 167.515L238.568 174.915L244.503 178.125L245.259 189.095L245.398 200.001L233.821 206.962C231.431 209.492 251.599 216.296 258.708 215.847C270.56 215.098 275.893 204.136 275.893 204.136L262.772 197.624L260.571 176.922L265.458 169.254L267.51 162.136L272.041 161.289L272.941 153.811L269.436 150.296L263.298 149.426L259.001 142.891L259.406 137.137L243.657 146.702L233.722 147.446Z" fill="white"/>
<path d="M233.722 147.446C230.998 153.101 230.449 159.603 232.183 165.655C233.902 171.859 238.215 175.979 245.124 178.014L245.412 199.969L236.547 205.297" stroke="#1D252E" stroke-width="4" stroke-linecap="round"/>
<path d="M234.005 146.757C235.58 147.735 238.554 147.519 242.928 146.11C247.302 144.701 252.794 141.716 259.406 137.156C258.688 139.711 258.876 142.445 259.937 144.87C260.862 147.203 262.562 149.123 264.733 150.291C268.453 149.021 270.94 149.864 272.194 152.821C274.075 157.256 272.833 161.109 271.388 161.854C270.21 162.508 268.851 162.732 267.532 162.492C267.748 164.804 266.866 167.21 264.927 170.392C262.988 173.574 261.516 175.331 260.504 175.673L262.02 197.643L266.164 199.294" stroke="#1D252E" stroke-width="4" stroke-linecap="round"/>
<path d="M243.229 177.343C244.261 177.935 245.74 178.324 247.666 178.509C249.943 178.666 252.228 178.404 254.416 177.736" stroke="#1D252E" stroke-width="4" stroke-linecap="round"/>
<path d="M268.248 185.849C269.356 186.333 270.579 186.469 271.762 186.237C273.202 186.043 274.885 185.021 276.811 183.171" stroke="#1D252E" stroke-width="4" stroke-linecap="round"/>
<path d="M209.585 251.109L209.239 254.915L164.535 281.44L152.075 285.321L143.8 295.357L140.497 303.71L162.874 301.707L167.81 295.991L230.185 277.43L234.491 272.352L233.56 246.784L209.585 251.109Z" fill="white"/>
<path d="M209.671 252.173L209.095 255.082L165.254 281.301C158.082 283.022 153.338 284.832 151.022 286.731C147.552 289.594 138.504 303.192 141.248 303.881C143.075 304.341 150.284 303.611 162.874 301.693" stroke="#1D252E" stroke-width="4" stroke-linecap="round"/>
<path d="M234.05 249.217C235.697 265.081 234.533 274.219 230.558 276.63C226.585 279.044 207.524 282.976 167.833 295.991L163.185 301.781" stroke="#1D252E" stroke-width="4" stroke-linecap="round"/>
<path d="M236.25 203.345C237.75 207.816 241.512 210.977 247.536 212.827C253.543 214.677 262.052 212.272 275.06 202.013C286.597 199.923 295.817 204.118 302.886 211.666C309.955 219.214 311.121 264.554 304.43 315.356L216.533 321.498C216.533 321.443 226.747 271.505 225.505 271.122L219.287 259.61L202.638 253.935C210.125 228.117 210.031 223.025 213.604 215.805C217.176 208.586 224.736 204.432 236.25 203.345Z" fill="#1D252E"/>
<path d="M228.961 232.497C226.261 240.711 225.777 248.492 227.508 255.84C229.239 263.188 232.048 268.309 235.936 271.205L239.63 295.935" stroke="#1D252E" stroke-width="4" stroke-linecap="round"/>
<path d="M237.416 336.15C237.416 336.15 228.578 350.026 218.585 347.44C208.591 344.855 203.902 361.686 203.902 361.686" stroke="#1D252E" stroke-width="4" stroke-linecap="round"/>
<path d="M372.325 297.744H-52.1481V438.37H372.325V297.744Z" fill="#9693FF"/>
<path d="M275.276 307.179L232.948 327.691H90.5192V323.741L132.852 303.22H275.276V307.179Z" fill="#1D252E"/>
<path d="M270.327 303.497L231.229 322.446H99.6626V318.792L138.769 299.839H270.327V303.497Z" fill="#9693FF"/>
<path d="M156.237 308.737H161.119" stroke="#1D252E" stroke-width="4" stroke-linecap="round"/>
<path d="M165.736 308.737H170.618" stroke="#1D252E" stroke-width="4" stroke-linecap="round"/>
<path d="M176.054 308.737H180.936" stroke="#1D252E" stroke-width="4" stroke-linecap="round"/>
<path d="M185.552 308.737H190.435" stroke="#1D252E" stroke-width="4" stroke-linecap="round"/>
<path d="M195.866 308.737H200.753" stroke="#1D252E" stroke-width="4" stroke-linecap="round"/>
<path d="M205.365 308.737H210.247" stroke="#1D252E" stroke-width="4" stroke-linecap="round"/>
<path d="M215.682 308.737H220.565" stroke="#1D252E" stroke-width="4" stroke-linecap="round"/>
<path d="M225.181 308.737H230.063" stroke="#1D252E" stroke-width="4" stroke-linecap="round"/>
<path d="M235.499 308.737H240.381" stroke="#1D252E" stroke-width="4" stroke-linecap="round"/>
<path d="M244.998 308.737H249.88" stroke="#1D252E" stroke-width="4" stroke-linecap="round"/>
<path d="M145.429 313.622H150.311" stroke="#1D252E" stroke-width="4" stroke-linecap="round"/>
<path d="M154.928 313.622H159.81" stroke="#1D252E" stroke-width="4" stroke-linecap="round"/>
<path d="M165.245 313.622H170.128" stroke="#1D252E" stroke-width="4" stroke-linecap="round"/>
<path d="M174.744 313.622H179.626" stroke="#1D252E" stroke-width="4" stroke-linecap="round"/>
<path d="M185.057 313.622H189.944" stroke="#1D252E" stroke-width="4" stroke-linecap="round"/>
<path d="M194.556 313.622H199.439" stroke="#1D252E" stroke-width="4" stroke-linecap="round"/>
<path d="M234.19 313.622H239.072" stroke="#1D252E" stroke-width="4" stroke-linecap="round"/>
<path d="M137.734 318.335H142.617" stroke="#1D252E" stroke-width="4" stroke-linecap="round"/>
<path d="M147.233 318.335H152.115" stroke="#1D252E" stroke-width="4" stroke-linecap="round"/>
<path d="M157.546 318.335H162.428" stroke="#1D252E" stroke-width="4" stroke-linecap="round"/>
<path d="M167.045 318.335H171.927" stroke="#1D252E" stroke-width="4" stroke-linecap="round"/>
<path d="M177.363 318.335H182.245" stroke="#1D252E" stroke-width="4" stroke-linecap="round"/>
<path d="M186.862 318.335H191.744" stroke="#1D252E" stroke-width="4" stroke-linecap="round"/>
<path d="M197.18 318.335H202.062" stroke="#1D252E" stroke-width="4" stroke-linecap="round"/>
<path d="M206.674 318.335H211.561" stroke="#1D252E" stroke-width="4" stroke-linecap="round"/>
<path d="M216.992 318.335H221.874" stroke="#1D252E" stroke-width="4" stroke-linecap="round"/>
<path d="M226.491 318.335H231.373" stroke="#1D252E" stroke-width="4" stroke-linecap="round"/>
<path d="M147.62 303.918H262.709" stroke="#1D252E" stroke-width="4" stroke-linecap="round"/>
<path d="M277.702 261.312L277.355 265.118L232.651 291.648L220.191 295.528L211.916 305.56L208.614 313.913L230.99 311.915L235.927 306.198L298.301 287.638L302.607 282.555L301.676 256.992L277.702 261.312Z" fill="white"/>
<path d="M277.787 262.375L277.211 265.285L233.37 291.504C226.198 293.225 221.454 295.039 219.138 296.948C215.669 299.811 206.62 313.413 209.365 314.103C211.192 314.562 218.4 313.833 230.99 311.915" stroke="#1D252E" stroke-width="4" stroke-linecap="round"/>
<path d="M302.144 259.443C303.791 275.307 302.627 284.446 298.652 286.861C294.679 289.27 275.618 293.206 235.926 306.221L231.278 311.984" stroke="#1D252E" stroke-width="4" stroke-linecap="round"/>
<path d="M187.573 168.523H49.3515C48.5686 168.522 47.7945 168.692 47.0798 169.02C46.3651 169.349 45.7259 169.829 45.2043 170.429C44.6826 171.029 44.2901 171.735 44.0526 172.502C43.815 173.269 43.7378 174.078 43.8259 174.878L55.5251 281.315C55.6757 282.713 56.3226 284.006 57.3421 284.944C58.3616 285.883 59.682 286.402 61.0507 286.403H199.267C200.053 286.404 200.829 286.235 201.546 285.906C202.263 285.576 202.904 285.095 203.426 284.493C203.949 283.891 204.342 283.182 204.579 282.413C204.816 281.643 204.892 280.831 204.802 280.029L193.103 173.597C192.95 172.2 192.301 170.91 191.281 169.974C190.261 169.037 188.94 168.521 187.573 168.523Z" fill="#9693FF"/>
<path d="M174.731 327.15C174.731 331.641 151.472 335.281 122.782 335.281C94.0918 335.281 70.8329 331.641 70.8329 327.15V323.353C70.8329 318.866 94.0918 315.231 122.782 315.231C151.472 315.231 174.731 318.866 174.731 323.353V327.15Z" fill="#1D252E"/>
<path d="M138.103 319.722C138.103 324.564 105.674 324.564 105.674 319.722V225.68H138.103V319.722Z" fill="#9693FF"/>
<path d="M49.4056 174.624H186.56L197.517 277.768" stroke="#1D252E" stroke-width="4" stroke-linecap="round" stroke-linejoin="round"/>
<path d="M120.046 240.351C127.839 240.351 134.157 233.857 134.157 225.846C134.157 217.836 127.839 211.342 120.046 211.342C112.253 211.342 105.935 217.836 105.935 225.846C105.935 233.857 112.253 240.351 120.046 240.351Z" fill="white"/>
<path d="M105.935 225.846C105.935 222.978 106.762 220.174 108.313 217.789C109.863 215.404 112.066 213.545 114.644 212.447C117.223 211.349 120.059 211.061 122.797 211.62C125.534 212.179 128.048 213.56 130.022 215.588" stroke="#1D252E" stroke-width="4" stroke-linecap="round" stroke-linejoin="round"/>
<path d="M133.046 231.489C132.106 233.776 130.611 235.776 128.704 237.299C126.797 238.822 124.542 239.817 122.154 240.188C119.766 240.559 117.326 240.295 115.066 239.42C112.806 238.544 110.803 237.088 109.247 235.189" stroke="#1D252E" stroke-width="4" stroke-linecap="round" stroke-linejoin="round"/>
</g>
<path d="M239.9 128.178C241.011 123.239 271.528 121.81 269.305 148.034" stroke="#9693FF" stroke-width="5.91" stroke-linecap="round"/>
<path d="M269.427 160.966C273.154 160.966 276.176 157.86 276.176 154.028C276.176 150.196 273.154 147.09 269.427 147.09C265.699 147.09 262.677 150.196 262.677 154.028C262.677 157.86 265.699 160.966 269.427 160.966Z" stroke="#1D252E" stroke-width="4" stroke-linecap="round"/>
<path d="M269.427 159.781C272.518 159.781 275.024 157.205 275.024 154.028C275.024 150.85 272.518 148.274 269.427 148.274C266.335 148.274 263.829 150.85 263.829 154.028C263.829 157.205 266.335 159.781 269.427 159.781Z" fill="#716FB8"/>
<path d="M269.427 159.782C269.427 159.782 261.714 172.547 247.671 172.547" stroke="#9693FF" stroke-width="5.91" stroke-linecap="round"/>
<path d="M248.364 174.078C250.319 174.078 251.905 173.14 251.905 171.983C251.905 170.825 250.319 169.887 248.364 169.887C246.408 169.887 244.822 170.825 244.822 171.983C244.822 173.14 246.408 174.078 248.364 174.078Z" fill="#1D252E"/>
</svg>
