<svg width="79" height="14" viewBox="0 0 79 14" fill="none" xmlns="http://www.w3.org/2000/svg">
<path d="M28.552 4.384C28.552 5.03467 28.4027 5.632 28.104 6.176C27.8053 6.70933 27.3467 7.14133 26.728 7.472C26.1093 7.80267 25.3413 7.968 24.424 7.968H22.728V12H19.992V0.768H24.424C25.32 0.768 26.0773 0.922666 26.696 1.232C27.3147 1.54133 27.7787 1.968 28.088 2.512C28.3973 3.056 28.552 3.68 28.552 4.384ZM24.216 5.792C24.7387 5.792 25.128 5.66933 25.384 5.424C25.64 5.17867 25.768 4.832 25.768 4.384C25.768 3.936 25.64 3.58933 25.384 3.344C25.128 3.09867 24.7387 2.976 24.216 2.976H22.728V5.792H24.216ZM42.6964 0.768V12H39.9604V5.264L37.4484 12H35.2404L32.7124 5.248V12H29.9764V0.768H33.2084L36.3604 8.544L39.4804 0.768H42.6964ZM55.0465 10.016H50.8545L50.1825 12H47.3185L51.3825 0.768H54.5505L58.6145 12H55.7185L55.0465 10.016ZM54.3425 7.904L52.9505 3.792L51.5745 7.904H54.3425ZM68.4114 4.384C68.4114 5.03467 68.262 5.632 67.9634 6.176C67.6647 6.70933 67.206 7.14133 66.5874 7.472C65.9687 7.80267 65.2007 7.968 64.2834 7.968H62.5874V12H59.8514V0.768H64.2834C65.1794 0.768 65.9367 0.922666 66.5554 1.232C67.174 1.54133 67.638 1.968 67.9474 2.512C68.2567 3.056 68.4114 3.68 68.4114 4.384ZM64.0754 5.792C64.598 5.792 64.9874 5.66933 65.2434 5.424C65.4994 5.17867 65.6274 4.832 65.6274 4.384C65.6274 3.936 65.4994 3.58933 65.2434 3.344C64.9874 3.09867 64.598 2.976 64.0754 2.976H62.5874V5.792H64.0754ZM78.3958 4.384C78.3958 5.03467 78.2464 5.632 77.9478 6.176C77.6491 6.70933 77.1904 7.14133 76.5718 7.472C75.9531 7.80267 75.1851 7.968 74.2678 7.968H72.5718V12H69.8358V0.768H74.2678C75.1638 0.768 75.9211 0.922666 76.5398 1.232C77.1584 1.54133 77.6224 1.968 77.9318 2.512C78.2411 3.056 78.3958 3.68 78.3958 4.384ZM74.0598 5.792C74.5824 5.792 74.9718 5.66933 75.2278 5.424C75.4838 5.17867 75.6118 4.832 75.6118 4.384C75.6118 3.936 75.4838 3.58933 75.2278 3.344C74.9718 3.09867 74.5824 2.976 74.0598 2.976H72.5718V5.792H74.0598Z" fill="#6206A8"/>
<path d="M6.415 0.125L0.125 6.415V8.41958L8.41958 0.125H6.415ZM0.125 1.54167V2.95833L2.95833 0.125H1.54167C0.7625 0.125 0.125 0.7625 0.125 1.54167ZM11.8196 0.181667L0.181667 11.8196C0.245417 12.0604 0.372917 12.28 0.542917 12.4571C0.72 12.6271 0.939583 12.7546 1.18042 12.8183L12.8254 1.18042C12.6908 0.691667 12.3083 0.309167 11.8196 0.181667ZM12.875 4.58042L4.58042 12.875H6.585L12.875 6.585V4.58042ZM12.4571 12.4571C12.7192 12.2021 12.875 11.8479 12.875 11.4583V10.0417L10.0417 12.875H11.4583C11.8479 12.875 12.2021 12.7192 12.4571 12.4571Z" fill="#6206A8"/>
</svg>
