<svg width="500" height="500" viewBox="0 0 500 500" fill="none" xmlns="http://www.w3.org/2000/svg">
<path opacity="0.18" d="M211.88 116.34C208.12 118.08 204.42 119.98 200.8 122.04C158.4 146.18 128.73 191.47 82.32 206.51C69.77 210.58 56.27 211.69 46.11 220.6C38.79 227.3 32.42 234.96 27.16 243.37C16.06 260.8 8.69999 280.35 5.53999 300.78C-0.800011 340.33 8.06999 384.87 39.54 411.97C63.27 432.34 98.41 433.38 128.04 427.87C145.02 424.72 161.32 418.56 178.14 414.53C207.55 407.48 238.15 406.93 267.8 412.93C287.37 416.89 306.26 423.69 325.81 427.88C339.88 430.9 354.5 432.57 368.84 430.71C382.6 428.93 393.22 422.36 405.76 417.06C429.62 406.95 453.75 394.05 468.97 372.31C480.66 355.27 486.05 334.7 484.24 314.11C482.3 293.57 473.94 274.16 460.35 258.64C454.29 251.69 446.37 245.53 443.43 236.67C440.49 227.81 440 217.49 439.09 208.39C437.07 188.48 434.69 167.98 424.97 150.48C414.16 131.01 395.03 117.08 374.18 109.24C353.33 101.4 330.8 99.15 308.53 98.89C275.46 98.49 241.63 102.56 211.86 116.32L211.88 116.34Z" fill="#6206A8"/>
<path d="M193.74 389.33H294.2L276.42 325.45H208.73L193.74 389.33Z" fill="#6206A8"/>
<path d="M394.44 154.68V319.49C394.44 329.44 386.37 337.51 376.42 337.51H116.08C106.13 337.51 98.07 329.44 98.07 319.49V154.68C98.07 144.73 106.14 136.66 116.09 136.66H376.4C386.35 136.66 394.43 144.72 394.44 154.67V154.68Z" fill="#6206A8"/>
<path d="M394.44 154.68V299.21H98.07V154.68C98.07 144.72 106.14 136.65 116.09 136.64H376.4C386.36 136.65 394.42 144.72 394.44 154.68Z" fill="#231F20"/>
<path d="M389.98 158.18V294.44H102.56V158.18C102.61 148.58 110.44 140.83 120.04 140.88C120.04 140.88 120.04 140.88 120.05 140.88H372.48C382.08 140.82 389.92 148.56 389.98 158.16C389.98 158.16 389.98 158.16 389.98 158.17V158.18Z" fill="white"/>
<path opacity="0.18" d="M389.98 158.18V294.44H102.56V158.18C102.61 148.58 110.44 140.83 120.04 140.88C120.04 140.88 120.04 140.88 120.05 140.88H372.48C382.08 140.82 389.92 148.56 389.98 158.16C389.98 158.16 389.98 158.16 389.98 158.17V158.18Z" fill="#6206A8"/>
<path d="M292.68 244.98H251.52C250.675 244.98 249.99 245.665 249.99 246.51V246.52C249.99 247.365 250.675 248.05 251.52 248.05H292.68C293.525 248.05 294.21 247.365 294.21 246.52V246.51C294.21 245.665 293.525 244.98 292.68 244.98Z" fill="#6206A8"/>
<path d="M344.44 244.98H303.28C302.435 244.98 301.75 245.665 301.75 246.51V246.52C301.75 247.365 302.435 248.05 303.28 248.05H344.44C345.285 248.05 345.97 247.365 345.97 246.52V246.51C345.97 245.665 345.285 244.98 344.44 244.98Z" fill="#6206A8"/>
<path d="M318.27 251.91H251.52C250.675 251.91 249.99 252.595 249.99 253.44V253.45C249.99 254.295 250.675 254.98 251.52 254.98H318.27C319.115 254.98 319.8 254.295 319.8 253.45V253.44C319.8 252.595 319.115 251.91 318.27 251.91Z" fill="#6206A8"/>
<path d="M292.68 258.81H251.52C250.675 258.81 249.99 259.495 249.99 260.34V260.35C249.99 261.195 250.675 261.88 251.52 261.88H292.68C293.525 261.88 294.21 261.195 294.21 260.35V260.34C294.21 259.495 293.525 258.81 292.68 258.81Z" fill="#6206A8"/>
<path d="M344.44 258.81H303.28C302.435 258.81 301.75 259.495 301.75 260.34V260.35C301.75 261.195 302.435 261.88 303.28 261.88H344.44C345.285 261.88 345.97 261.195 345.97 260.35V260.34C345.97 259.495 345.285 258.81 344.44 258.81Z" fill="#6206A8"/>
<path d="M307.78 216.87C290.94 216.33 277.46 210.77 277.67 204.46C277.67 204.02 277.84 198.69 277.97 198.26C277.97 198.26 278.66 198.44 278.66 198.43C280.6 192.8 292.89 193.51 308.52 194.01C322.26 194.46 334.32 193.8 337.99 198.6C338.82 199.68 338.68 205.27 338.64 206.43C338.43 212.68 324.62 217.41 307.79 216.86L307.78 216.87Z" fill="#6206A8"/>
<path d="M307.78 216.87C290.94 216.33 277.46 210.77 277.67 204.46C277.67 204.02 277.91 198.03 277.91 198.03C279.85 192.4 292.89 193.52 308.52 194.07C322.26 194.52 334.89 195.7 338.58 200.5C338.58 200.5 338.67 205.33 338.58 206.49C338.42 212.69 324.62 217.42 307.78 216.87Z" fill="url(#paint0_linear_225_907)"/>
<path d="M307.71 211.38C290.89 210.84 277.68 205.39 277.89 199.08V197.84C279.83 192.21 292.79 188.03 308.44 188.53C322.17 188.98 333.66 192.76 337.33 197.56C338.12 198.51 338.55 199.71 338.54 200.95C338.36 207.29 324.54 211.97 307.71 211.38Z" fill="#6206A8"/>
<path d="M337.34 197.6L309.41 198.26L277.87 199C277.83 198.63 277.83 198.25 277.87 197.88C279.35 193.59 287.1 190.07 297.74 188.94C301.29 188.57 304.86 188.45 308.42 188.57C322.21 188.97 333.67 192.8 337.33 197.6H337.34Z" fill="url(#paint1_linear_225_907)"/>
<path d="M293.4 209.61L309.41 198.26L277.87 199C277.87 199 276.29 205.34 293.4 209.61Z" fill="url(#paint2_linear_225_907)"/>
<path d="M310.14 195.67L278.31 196.41C278.35 195.96 278.43 195.52 278.55 195.09C280.03 190.82 287.94 187.48 298.49 186.32L310.15 195.67H310.14Z" fill="#6206A8"/>
<path d="M309.41 198.26L310.14 195.67L278.31 196.41L309.41 198.26Z" fill="#6206A8"/>
<path d="M309.41 198.26L310.14 195.67L278.31 196.41L277.9 197.88L309.41 198.26Z" fill="url(#paint3_linear_225_907)"/>
<path d="M293.4 209.61L294.14 206.96L309.89 196.54L309.41 198.26L293.4 209.61Z" fill="url(#paint4_linear_225_907)"/>
<path d="M309.89 196.54L277.9 197.86C277.9 197.86 281.18 204.58 294.14 206.94L309.88 196.54H309.89Z" fill="#6206A8"/>
<path d="M294.14 206.96L291.99 214.71C291.99 214.71 278.81 211.39 277.71 205.27L277.89 197.87C277.89 197.87 281.71 206.24 294.13 206.95L294.14 206.96Z" fill="#6206A8"/>
<path d="M294.14 206.96L291.99 214.71C291.99 214.71 278.81 211.39 277.71 205.27L277.89 197.87C277.89 197.87 281.71 206.24 294.13 206.95L294.14 206.96Z" fill="url(#paint5_linear_225_907)"/>
<path d="M293.27 192.83L288.8 179.03L272.63 173.52L272.77 173.1L289.16 178.69L289.19 178.8L293.69 192.69L293.27 192.83Z" fill="#6206A8"/>
<path d="M270.96 174.46C269.93 174.24 269.28 173.23 269.5 172.2C269.72 171.17 270.73 170.52 271.76 170.74H271.97C273 170.96 273.65 171.97 273.43 173C273.21 174.03 272.2 174.68 271.17 174.46H270.96ZM271.87 171.23C271.09 171.01 270.28 171.47 270.07 172.25C269.85 173.03 270.31 173.84 271.09 174.05C271.87 174.27 272.67 173.81 272.89 173.04C273.08 172.28 272.63 171.5 271.87 171.29V171.24V171.23Z" fill="#6206A8"/>
<path d="M313.3 190.54L313.01 190.21L324.13 180.56L324.23 180.59L341.04 184.24L340.95 184.68L324.24 181.04L313.3 190.54Z" fill="#6206A8"/>
<path d="M341.86 186.33C340.85 186.05 340.25 185 340.53 183.99C340.81 182.98 341.86 182.38 342.87 182.66C343.87 182.95 344.46 184 344.19 185.01C343.91 186.02 342.86 186.61 341.86 186.33ZM342.76 183.08C341.98 182.86 341.17 183.31 340.95 184.09C340.73 184.87 341.18 185.68 341.96 185.9C342.74 186.12 343.55 185.67 343.77 184.89C343.77 184.89 343.77 184.87 343.77 184.86C343.97 184.09 343.52 183.3 342.75 183.08H342.76Z" fill="#6206A8"/>
<path d="M352.14 227.92C351.1 227.65 350.46 226.59 350.73 225.55C351 224.51 352.06 223.87 353.1 224.14C354.1 224.39 354.73 225.38 354.54 226.39V226.6C354.27 227.61 353.23 228.21 352.21 227.94C352.19 227.94 352.16 227.93 352.14 227.92ZM353.04 224.69C352.26 224.47 351.45 224.93 351.24 225.71C351.02 226.49 351.48 227.3 352.26 227.51C353.04 227.73 353.84 227.27 354.06 226.5C354.27 225.73 353.83 224.93 353.06 224.71H353.05L353.04 224.69Z" fill="#6206A8"/>
<path d="M350.97 225.85L334.79 221.34L334.74 221.3L321.63 206.51L321.96 206.22L335.03 220.96L351.09 225.43L350.97 225.85Z" fill="#6206A8"/>
<path d="M254.21 203.64C253.2 203.35 252.62 202.3 252.9 201.3C253.19 200.29 254.24 199.71 255.24 199.99C256.25 200.27 256.83 201.32 256.55 202.32C256.28 203.33 255.24 203.92 254.24 203.65C254.23 203.65 254.22 203.65 254.21 203.65V203.64ZM255.12 200.39C254.34 200.17 253.53 200.63 253.32 201.41C253.1 202.19 253.56 203 254.34 203.21C255.12 203.43 255.92 202.97 256.14 202.2C256.35 201.42 255.9 200.62 255.12 200.39Z" fill="#6206A8"/>
<path d="M272.47 206.97L256.28 202.46L256.4 202.04L272.47 206.51L291.27 200.63L291.4 201.05L272.47 206.97Z" fill="#6206A8"/>
<path d="M361.9 222.68H374.58C376.04 222.68 377.22 223.86 377.22 225.32C377.22 226.78 376.04 227.96 374.58 227.96H361.9C360.44 227.96 359.26 226.78 359.26 225.32C359.26 223.86 360.44 222.68 361.9 222.68Z" fill="#6206A8"/>
<path d="M350.44 180.43H363.08C364.54 180.43 365.72 181.61 365.72 183.07C365.72 184.53 364.54 185.71 363.08 185.71H350.4C348.94 185.71 347.76 184.53 347.76 183.07C347.76 181.61 348.94 180.43 350.4 180.43C350.41 180.43 350.43 180.43 350.44 180.43Z" fill="#6206A8"/>
<path d="M263.67 162.98H276.35C277.81 162.98 278.99 164.16 278.99 165.62C278.99 167.08 277.81 168.26 276.35 168.26H263.67C262.21 168.26 261.03 167.08 261.03 165.62C261.03 164.16 262.21 162.98 263.67 162.98Z" fill="#6206A8"/>
<path d="M240.84 206.95H253.52C254.98 206.95 256.16 208.13 256.16 209.59C256.16 211.05 254.98 212.23 253.52 212.23H240.84C239.38 212.23 238.2 211.05 238.2 209.59C238.2 208.13 239.38 206.95 240.84 206.95Z" fill="#6206A8"/>
<path d="M145.31 236.97C142.49 225.87 138.14 215.15 135.91 203.9C133.68 192.65 133.67 181.16 133.79 169.71C133.65 165.97 134.12 162.23 135.19 158.63C136.44 155.11 139.15 151.87 142.73 150.92L147.94 185C148.96 191.68 150 198.45 152.5 204.78C155.01 211.11 159.09 216.94 165.03 220.25C163.09 210.51 161.77 200.65 161.07 190.74C160.67 185.32 160.94 178.87 165.41 175.83C169.37 173.07 175.21 174.51 178.59 177.98C181.98 181.45 183.53 186.27 184.52 191.01C185.94 197.83 186.54 204.96 189.6 211.21C190.64 213.36 193.38 215.59 195.06 213.85C195.32 213.54 195.54 213.2 195.71 212.83L214.1 176.48C215.79 173.13 217.4 168.82 215 165.93C213.18 163.75 209.95 163.58 207.09 163.54C188.83 163.25 170.68 160.72 153.03 156.02C165.36 149.97 179.4 148.82 193.18 148.37C204.51 148 216.37 148.16 226.39 153.47C226.93 153.71 227.4 154.06 227.79 154.51C228.2 155.14 228.43 155.87 228.46 156.62C230.17 170.44 227.79 184.45 221.6 196.93C217.51 205.13 211.86 212.47 207.52 220.56C195.57 242.76 194.23 269.24 196.97 294.3C185.75 293.09 178.51 296.12 167.23 294.89C164.34 294.57 159.71 293.93 156.84 294.38C155.14 294.66 146.65 295.42 144.97 294.3C144.97 294.3 148.62 278.06 148.82 274.84C149.6 262.11 148.42 249.33 145.31 236.96V236.97Z" fill="url(#paint6_linear_225_907)"/>
<path d="M193.68 229.19C192.64 229.19 195.86 222.4 196.04 222.1C198.41 218.25 201.12 214.62 204.15 211.26C206.79 208.21 209.42 205.08 212.31 202.27C214.95 199.63 218.34 196.17 222.49 197C225.61 197.66 227.49 201.15 227.36 204.36C227.23 207.57 225.58 210.46 223.85 213.17C220.38 218.59 216.66 223.72 212.89 228.99L193.68 229.2V229.19Z" fill="white"/>
<path d="M169.64 232.84C170.64 233.06 168.89 225.73 168.78 225.4C167.25 221.15 165.34 217.05 163.07 213.14C161.09 209.59 159.21 206.01 156.93 202.59C154.83 199.5 152.28 195.38 148.04 195.36C144.85 195.36 142.29 198.39 141.76 201.54C141.23 204.69 142.25 207.9 143.38 210.89C145.66 216.92 148.25 222.76 150.87 228.6L169.63 232.83L169.64 232.84Z" fill="white"/>
<path d="M161.65 218.17H202.31C208.13 218.02 212.98 222.61 213.13 228.43V228.9C213.13 228.9 205.38 260.54 205.22 271.17C205.22 276.98 207.05 294.38 207.05 294.38H156.84C156.84 294.38 159.16 276.21 159.11 270.12C159.03 259.74 150.82 228.9 150.82 228.9C150.71 223.08 155.34 218.26 161.17 218.15H161.64L161.65 218.17Z" fill="white"/>
<path d="M236.51 158.4C236.88 157.27 236.95 156.07 236.72 154.91C236.38 153.86 235.72 152.94 234.85 152.27C232.67 150.4 229.77 149.58 226.94 150.05C226.36 150.14 225.8 150.37 225.32 150.71C224.88 151.08 224.51 151.53 224.23 152.03C222.81 154.26 221.34 156.95 222.27 159.43C222.93 160.62 223.65 161.78 224.43 162.9C224.85 163.7 225.06 164.6 225.46 165.42C226.48 167.48 230.38 170.23 232.76 168.7C233.95 167.95 234.39 165.39 234.83 164.15C235.44 162.3 236.02 160.37 236.52 158.4H236.51Z" fill="#FFB4A3"/>
<path d="M135.12 154.87C134.75 153.74 134.67 152.54 134.91 151.38C135.25 150.33 135.91 149.41 136.78 148.74C138.96 146.87 141.86 146.05 144.69 146.52C145.27 146.61 145.83 146.84 146.31 147.18C146.75 147.55 147.12 148 147.4 148.5C148.81 150.73 150.29 153.4 149.36 155.9C148.7 157.09 147.98 158.25 147.2 159.37C146.78 160.17 146.57 161.07 146.17 161.89C145.15 163.95 141.25 166.7 138.85 165.17C137.68 164.42 137.23 161.86 136.79 160.62C136.17 158.77 135.59 156.84 135.1 154.87H135.12Z" fill="#FFB4A3"/>
<path d="M188.24 224.1C187.93 226.59 185.69 228.39 183.19 228.15C178.21 227.91 177.84 224.1 177.84 224.1V204.32H188.24V224.1Z" fill="#FFB4A3"/>
<path d="M177.84 214.09C177.84 214.09 184.35 224.24 188.24 219.36V211.45L177.84 214.09Z" fill="url(#paint7_linear_225_907)"/>
<path d="M173.46 209.06C176.1 217.13 189.02 217.37 193.36 210.96C195.88 207.24 196.18 202.4 195.39 197.99C194.69 193.63 193.36 189.4 191.43 185.42C190.11 182.91 188.79 180.69 185.72 180.33C182.27 180.1 178.82 180.87 175.79 182.55C169.87 185.74 167.02 192.66 168.97 199.1C169.49 200.66 170.14 202.18 170.93 203.62C171.92 205.36 172.76 207.18 173.45 209.07L173.46 209.06Z" fill="#FFB4A3"/>
<path d="M194.91 184.62C194.36 185.96 193.54 187.18 192.51 188.21C190.39 190.24 187.69 191.55 184.78 191.95C180.55 192.62 176.25 191.87 171.98 191.53C171.78 192.93 170.8 194.09 169.46 194.54C170.11 197.52 170.96 200.45 172.03 203.31C173.08 206.11 174.59 208.7 175.72 211.43C172.2 209 169.5 204.84 166.93 201.5C165.57 199.9 164.48 198.1 163.7 196.15C162.91 194.17 163.13 191.93 164.28 190.14C164.91 189.1 165.61 188.1 166.38 187.16C167.55 186.3 168.38 185.04 168.7 183.61C168.86 182.12 168.01 180.68 167.9 179.18C167.86 178.97 167.9 178.75 168.01 178.56C168.14 178.42 168.31 178.32 168.5 178.27L171.55 177.14C171.27 176.51 170.91 175.91 170.48 175.37C172.27 174.43 174.27 173.97 176.29 174.05C175.88 173.1 175.34 172.22 174.69 171.41C176.07 170.86 177.62 170.95 178.92 171.65C180.34 172.2 181.72 172.89 183.09 173.56C183.22 172.42 183.24 171.27 183.16 170.12C184.97 169.97 186.77 170.49 188.22 171.58C189.7 172.41 191.03 173.47 192.18 174.72C192.99 175.64 193.61 176.71 193.97 177.88C194.34 179.2 195.01 180.28 195.29 181.56C195.47 182.59 195.35 183.66 194.92 184.62H194.91Z" fill="#231F20"/>
<path d="M170.67 203.76C169.75 203.91 168.93 204.43 168.4 205.2C168.11 205.81 168.07 206.51 168.28 207.15C168.51 207.78 168.84 208.36 169.27 208.86C169.5 209.17 169.77 209.44 170.07 209.66C170.6 209.96 171.19 210.11 171.8 210.1C172.27 210.13 172.74 210.13 173.21 210.1C173.45 210.1 173.68 210.04 173.9 209.93C174.13 209.76 174.29 209.53 174.37 209.26C174.7 208.28 174.7 207.21 174.37 206.23C174.15 205.3 173.7 204.45 173.05 203.75C172.46 203.16 171.47 203.54 170.66 203.76H170.67Z" fill="#FFB4A3"/>
<path d="M214.32 196.69C213.45 198.86 213.07 201.19 213.23 203.52C213.82 207.8 217.77 210.79 222.05 210.19C224.15 209.9 226.04 208.77 227.29 207.06C228.51 205.1 229.29 202.89 229.57 200.59C231.63 189.78 233.49 178.94 235.16 168.08C233.24 167.57 227.25 164.85 225.63 165.93C224.01 167.01 222.43 173.84 221.67 175.84C220.35 179.33 219.03 182.83 217.85 186.39C216.66 189.63 215.95 193.63 214.33 196.69H214.32Z" fill="white"/>
<path d="M139.53 197.03C139.62 199.36 140.24 201.65 141.35 203.7C143.66 207.35 148.49 208.43 152.14 206.12C153.92 204.99 155.17 203.2 155.6 201.14C155.92 198.84 155.72 196.5 155.01 194.3C152.43 183.6 149.67 172.96 146.72 162.38C144.76 162.7 138.24 162.66 137.15 164.34C136.06 166.03 137.47 172.8 137.6 175.02C137.84 178.74 138.12 182.45 138.46 186.16C138.76 189.63 139.75 193.56 139.54 197.02L139.53 197.03Z" fill="white"/>
<path d="M229.39 103.33H142.23V159.58H229.39V103.33Z" fill="#6206A8"/>
<path d="M230.41 111.37C235.093 111.37 238.89 107.573 238.89 102.89C238.89 98.2067 235.093 94.41 230.41 94.41C225.727 94.41 221.93 98.2067 221.93 102.89C221.93 107.573 225.727 111.37 230.41 111.37Z" fill="#6206A8"/>
<path d="M230.41 111.37C235.093 111.37 238.89 107.573 238.89 102.89C238.89 98.2067 235.093 94.41 230.41 94.41C225.727 94.41 221.93 98.2067 221.93 102.89C221.93 107.573 225.727 111.37 230.41 111.37Z" fill="url(#paint8_linear_225_907)"/>
<path d="M150.51 145.08V122.09H155.03L164.44 137.44V122.09H168.75V145.08H164.09L154.82 130.09V145.08H150.51Z" fill="white"/>
<path d="M173.65 145.08V122.09H190.69V125.98H178.29V131.08H189.83V134.95H178.29V141.21H191.13V145.08H173.65Z" fill="white"/>
<path d="M198.33 145.08L192.84 122.09H197.59L201.05 137.88L205.25 122.09H210.77L214.8 138.15L218.33 122.09H223L217.42 145.08H212.5L207.92 127.9L203.36 145.08H198.33Z" fill="white"/>
<defs>
<linearGradient id="paint0_linear_225_907" x1="277.268" y1="258.765" x2="379.28" y2="77.6097" gradientUnits="userSpaceOnUse">
<stop stop-color="#231F20"/>
<stop offset="0.08" stop-color="#231F20" stop-opacity="0.69"/>
<stop offset="0.21" stop-color="#231F20" stop-opacity="0.32"/>
<stop offset="1" stop-color="#231F20" stop-opacity="0"/>
</linearGradient>
<linearGradient id="paint1_linear_225_907" x1="320.103" y1="229.791" x2="296.841" y2="167.797" gradientUnits="userSpaceOnUse">
<stop stop-color="white"/>
<stop offset="1" stop-color="white" stop-opacity="0"/>
</linearGradient>
<linearGradient id="paint2_linear_225_907" x1="276.44" y1="230.131" x2="329.807" y2="135.351" gradientUnits="userSpaceOnUse">
<stop stop-color="#231F20"/>
<stop offset="0.08" stop-color="#231F20" stop-opacity="0.69"/>
<stop offset="0.21" stop-color="#231F20" stop-opacity="0.32"/>
<stop offset="1" stop-color="#231F20" stop-opacity="0"/>
</linearGradient>
<linearGradient id="paint3_linear_225_907" x1="292.458" y1="191.983" x2="316.346" y2="243.631" gradientUnits="userSpaceOnUse">
<stop stop-color="#231F20"/>
<stop offset="0.08" stop-color="#231F20" stop-opacity="0.69"/>
<stop offset="0.21" stop-color="#231F20" stop-opacity="0.32"/>
<stop offset="1" stop-color="#231F20" stop-opacity="0"/>
</linearGradient>
<linearGradient id="paint4_linear_225_907" x1="302.142" y1="199.766" x2="303.216" y2="227.119" gradientUnits="userSpaceOnUse">
<stop stop-color="#231F20"/>
<stop offset="0.08" stop-color="#231F20" stop-opacity="0.69"/>
<stop offset="0.21" stop-color="#231F20" stop-opacity="0.32"/>
<stop offset="1" stop-color="#231F20" stop-opacity="0"/>
</linearGradient>
<linearGradient id="paint5_linear_225_907" x1="263.423" y1="199.409" x2="358.181" y2="228.628" gradientUnits="userSpaceOnUse">
<stop stop-color="#231F20"/>
<stop offset="0.08" stop-color="#231F20" stop-opacity="0.69"/>
<stop offset="0.21" stop-color="#231F20" stop-opacity="0.32"/>
<stop offset="1" stop-color="#231F20" stop-opacity="0"/>
</linearGradient>
<linearGradient id="paint6_linear_225_907" x1="251.87" y1="442.68" x2="53.6401" y2="-218.85" gradientUnits="userSpaceOnUse">
<stop stop-color="#231F20"/>
<stop offset="0.08" stop-color="#231F20" stop-opacity="0.69"/>
<stop offset="0.21" stop-color="#231F20" stop-opacity="0.32"/>
<stop offset="1" stop-color="#231F20" stop-opacity="0"/>
</linearGradient>
<linearGradient id="paint7_linear_225_907" x1="185.32" y1="197.48" x2="179.42" y2="247.36" gradientUnits="userSpaceOnUse">
<stop stop-color="#231F20"/>
<stop offset="0.08" stop-color="#231F20" stop-opacity="0.69"/>
<stop offset="0.21" stop-color="#231F20" stop-opacity="0.32"/>
<stop offset="1" stop-color="#231F20" stop-opacity="0"/>
</linearGradient>
<linearGradient id="paint8_linear_225_907" x1="218.17" y1="99.85" x2="270.9" y2="112.97" gradientUnits="userSpaceOnUse">
<stop stop-color="#231F20"/>
<stop offset="0.08" stop-color="#231F20" stop-opacity="0.69"/>
<stop offset="0.21" stop-color="#231F20" stop-opacity="0.32"/>
<stop offset="1" stop-color="#231F20" stop-opacity="0"/>
</linearGradient>
</defs>
</svg>
